<?xml version="1.0" standalone="no"?><!DOCTYPE svg PUBLIC "-//W3C//DTD SVG 1.1//EN" "http://www.w3.org/Graphics/SVG/1.1/DTD/svg11.dtd"><svg t="1582097165166" class="icon" viewBox="0 0 1024 1024" version="1.1" xmlns="http://www.w3.org/2000/svg" p-id="4874" xmlns:xlink="http://www.w3.org/1999/xlink" width="32" height="32"><defs><style type="text/css"></style></defs><path d="M272 704a47.84 47.84 0 0 0-33.936 14.064l-96 96a48 48 0 1 0 67.872 67.872l96-96A48 48 0 0 0 272 704z m-48-192a48 48 0 0 0-48-48H48a48 48 0 1 0 0 96h128a48 48 0 0 0 48-48z m-14.064-369.936a48 48 0 1 0-67.872 67.872l96 96a48 48 0 1 0 67.872-67.872l-96-96zM752 320a47.84 47.84 0 0 0 33.936-14.064l96-96a48 48 0 1 0-67.872-67.872l-96 96A48 48 0 0 0 752 320z m33.936 398.064a48 48 0 1 0-67.872 67.872l96 96a48 48 0 1 0 67.872-67.872l-96-96zM512 800a48 48 0 0 0-48 48v128a48 48 0 1 0 96 0v-128a48 48 0 0 0-48-48z m464-336h-128a48 48 0 1 0 0 96h128a48 48 0 1 0 0-96zM512 0a48 48 0 0 0-48 48v128a48 48 0 1 0 96 0V48a48 48 0 0 0-48-48z" fill="#333" p-id="4875"></path></svg>
