<?xml version="1.0" standalone="no"?>
<!DOCTYPE svg PUBLIC "-//W3C//DTD SVG 20010904//EN"
 "http://www.w3.org/TR/2001/REC-SVG-20010904/DTD/svg10.dtd">
<svg version="1.0" xmlns="http://www.w3.org/2000/svg"
 width="512.000000pt" height="512.000000pt" viewBox="0 0 512.000000 512.000000"
 preserveAspectRatio="xMidYMid meet">
<metadata>
Created by potrace 1.11, written by Peter Selinger 2001-2013
</metadata>
<g transform="translate(0.000000,512.000000) scale(0.100000,-0.100000)"
fill="#000000" stroke="none">
<path d="M0 3200 l0 -1920 160 160 160 160 0 1600 0 1600 1600 0 1600 0 160
160 160 160 -1920 0 -1920 0 0 -1920z"/>
<path d="M4065 4512 l-609 -609 -283 284 c-155 156 -285 283 -288 283 -3 0 -5
-358 -5 -795 l0 -795 800 0 800 0 -285 285 c-157 156 -285 288 -285 291 0 4
270 277 600 607 330 330 600 605 600 611 0 6 -99 109 -219 229 l-218 217 -608
-608z"/>
<path d="M4958 3679 l-158 -159 0 -1600 0 -1600 -1600 0 -1600 0 -160 -160
-160 -160 1920 0 1920 0 0 1920 c0 1056 -1 1920 -2 1919 -2 0 -74 -72 -160
-160z"/>
<path d="M650 2235 c0 -3 120 -126 268 -273 147 -147 273 -275 281 -285 12
-16 -45 -76 -593 -624 l-606 -606 223 -224 224 -223 605 605 c333 333 608 605
612 605 4 0 135 -128 291 -285 l285 -285 0 800 0 800 -795 0 c-437 0 -795 -2
-795 -5z"/>
</g>
</svg>
